<svg data-v-423bf9ae="" xmlns="http://www.w3.org/2000/svg" viewBox="0 0 468.0311680268174 163" class="iconAbove"><!----><!----><!----><g data-v-423bf9ae="" id="7ca43857-211b-4927-8b0c-e1425b1467bc" fill="black" transform="matrix(5.203815821927428,0,0,5.203815821927428,-0.4163004662968035,80.93582496710957)"><path d="M5.84 12.82L4.98 12.96L2.63 6.57L2.19 12.39L3.45 12.62L3.36 13.17L0.08 13.17L0.16 12.67L1.30 12.35L1.79 5.48L0.54 5.19L0.62 4.67L3.35 4.67L3.90 6.00L5.68 11.07L7.80 5.77L8.28 4.67L10.98 4.67L10.91 5.19L9.75 5.46L10.12 12.39L11.35 12.62L11.29 13.17L7.63 13.17L7.71 12.67L8.84 12.35L8.46 6.31L5.84 12.82ZM14.19 13.17L12.24 7.99L11.39 7.73L11.47 7.21L14.33 7.21L14.28 7.71L13.41 7.96L14.81 11.66L16.28 8.00L15.39 7.72L15.48 7.21L17.82 7.21L17.77 7.71L17.08 7.99L14.82 13.54L14.82 13.54Q14.29 14.83 13.81 15.30L13.81 15.30L13.81 15.30Q13.32 15.77 12.52 15.77L12.52 15.77L12.52 15.77Q12.07 15.77 11.77 15.52L11.77 15.52L11.77 15.52Q11.47 15.27 11.47 14.96L11.47 14.96L11.47 14.96Q11.47 14.46 11.85 14.14L11.85 14.14L11.85 14.14Q12.39 14.51 12.88 14.51L12.88 14.51L12.88 14.51Q13.04 14.51 13.16 14.48L13.16 14.48L13.16 14.48Q13.28 14.44 13.45 14.36L13.45 14.36L13.45 14.36Q13.61 14.27 13.77 14.05L13.77 14.05L13.77 14.05Q13.92 13.84 14.05 13.51L14.05 13.51L14.19 13.17ZM28.62 13.16L27.58 13.38L23.04 6.60L23.04 12.39L24.29 12.62L24.22 13.17L20.97 13.17L21.02 12.67L22.16 12.35L22.16 5.53L20.92 5.19L20.99 4.67L23.40 4.67L27.79 11.31L27.79 5.48L26.52 5.19L26.60 4.67L29.85 4.67L29.76 5.19L28.62 5.46L28.62 13.16ZM34.84 10.09L34.84 10.09L31.53 10.12L31.53 10.12Q31.55 10.55 31.67 10.95L31.67 10.95L31.67 10.95Q31.80 11.35 32.02 11.70L32.02 11.70L32.02 11.70Q32.25 12.05 32.61 12.26L32.61 12.26L32.61 12.26Q32.98 12.48 33.43 12.48L33.43 12.48L33.48 12.48L33.48 12.48Q33.77 12.48 33.93 12.46L33.93 12.46L33.93 12.46Q34.10 12.45 34.38 12.36L34.38 12.36L34.38 12.36Q34.66 12.27 34.99 12.10L34.99 12.10L35.14 12.46L35.14 12.46Q34.73 12.89 34.14 13.14L34.14 13.14L34.14 13.14Q33.55 13.38 32.89 13.38L32.89 13.38L32.89 13.38Q32.40 13.38 31.94 13.17L31.94 13.17L31.94 13.17Q31.49 12.97 31.12 12.59L31.12 12.59L31.12 12.59Q30.75 12.22 30.53 11.61L30.53 11.61L30.53 11.61Q30.31 11.00 30.31 10.25L30.31 10.25L30.31 10.25Q30.31 9.50 30.56 8.88L30.56 8.88L30.56 8.88Q30.82 8.26 31.22 7.87L31.22 7.87L31.22 7.87Q31.63 7.47 32.12 7.25L32.12 7.25L32.12 7.25Q32.61 7.03 33.12 7.03L33.12 7.03L33.12 7.03Q33.91 7.03 34.43 7.59L34.43 7.59L34.43 7.59Q34.95 8.16 34.95 9.19L34.95 9.19L34.95 9.19Q34.95 9.59 34.84 10.09ZM31.54 9.59L31.54 9.59L33.69 9.45L33.69 9.45Q33.74 9.30 33.74 8.98L33.74 8.98L33.74 8.98Q33.74 7.70 32.79 7.70L32.79 7.70L32.79 7.70Q32.33 7.70 31.96 8.18L31.96 8.18L31.96 8.18Q31.59 8.66 31.54 9.59ZM39.41 7.63L40.36 7.51L41.30 10.81L41.44 11.57L42.37 7.99L41.34 7.71L41.41 7.19L44.03 7.19L43.95 7.70L43.21 7.98L41.75 13.24L40.95 13.36L39.76 9.17L38.68 13.24L37.88 13.36L36.32 7.99L35.53 7.71L35.59 7.19L38.44 7.19L38.37 7.70L37.44 7.98L38.21 10.71L38.37 11.53L39.41 7.63ZM56.09 13.14L55.04 13.34L53.25 6.67L51.30 13.14L50.19 13.34L47.95 5.48L47.00 5.19L47.06 4.67L50.58 4.67L50.48 5.19L49.33 5.46L50.99 11.31L52.91 5.01L54.12 4.84L55.81 11.21L57.59 5.48L56.36 5.19L56.44 4.67L59.51 4.67L59.42 5.19L58.59 5.46L56.09 13.14ZM64.50 10.09L64.50 10.09L61.19 10.12L61.19 10.12Q61.21 10.55 61.34 10.95L61.34 10.95L61.34 10.95Q61.46 11.35 61.68 11.70L61.68 11.70L61.68 11.70Q61.91 12.05 62.28 12.26L62.28 12.26L62.28 12.26Q62.64 12.48 63.10 12.48L63.10 12.48L63.14 12.48L63.14 12.48Q63.43 12.48 63.59 12.46L63.59 12.46L63.59 12.46Q63.76 12.45 64.04 12.36L64.04 12.36L64.04 12.36Q64.32 12.27 64.65 12.10L64.65 12.10L64.80 12.46L64.80 12.46Q64.39 12.89 63.80 13.14L63.80 13.14L63.80 13.14Q63.21 13.38 62.55 13.38L62.55 13.38L62.55 13.38Q62.06 13.38 61.60 13.17L61.60 13.17L61.60 13.17Q61.15 12.97 60.78 12.59L60.78 12.59L60.78 12.59Q60.41 12.22 60.19 11.61L60.19 11.61L60.19 11.61Q59.97 11.00 59.97 10.25L59.97 10.25L59.97 10.25Q59.97 9.50 60.22 8.88L60.22 8.88L60.22 8.88Q60.48 8.26 60.88 7.87L60.88 7.87L60.88 7.87Q61.29 7.47 61.78 7.25L61.78 7.25L61.78 7.25Q62.28 7.03 62.78 7.03L62.78 7.03L62.78 7.03Q63.57 7.03 64.09 7.59L64.09 7.59L64.09 7.59Q64.61 8.16 64.61 9.19L64.61 9.19L64.61 9.19Q64.61 9.59 64.50 10.09ZM61.20 9.59L61.20 9.59L63.35 9.45L63.35 9.45Q63.40 9.30 63.40 8.98L63.40 8.98L63.40 8.98Q63.40 7.70 62.45 7.70L62.45 7.70L62.45 7.70Q61.99 7.70 61.62 8.18L61.62 8.18L61.62 8.18Q61.25 8.66 61.20 9.59ZM66.14 12.84L66.14 12.84L66.14 5.60L65.10 5.24L65.19 4.72L67.08 4.57L67.25 4.73L67.25 7.37L67.15 8.08L67.23 8.08L67.23 8.08Q68.16 7.03 69.19 7.03L69.19 7.03L69.19 7.03Q70.18 7.03 70.78 7.84L70.78 7.84L70.78 7.84Q71.38 8.65 71.38 9.95L71.38 9.95L71.38 9.95Q71.38 10.73 71.10 11.39L71.10 11.39L71.10 11.39Q70.83 12.04 70.36 12.46L70.36 12.46L70.36 12.46Q69.89 12.87 69.29 13.10L69.29 13.10L69.29 13.10Q68.68 13.33 68.01 13.33L68.01 13.33L68.01 13.33Q66.92 13.33 66.14 12.84ZM70.16 10.38L70.16 10.38L70.16 10.38Q70.16 10.05 70.13 9.73L70.13 9.73L70.13 9.73Q70.09 9.42 69.99 9.08L69.99 9.08L69.99 9.08Q69.89 8.74 69.73 8.49L69.73 8.49L69.73 8.49Q69.58 8.24 69.31 8.08L69.31 8.08L69.31 8.08Q69.05 7.92 68.72 7.92L68.72 7.92L68.72 7.92Q67.87 7.92 67.25 8.58L67.25 8.58L67.25 12.11L67.25 12.11Q67.46 12.33 67.86 12.45L67.86 12.45L67.86 12.45Q68.25 12.58 68.69 12.58L68.69 12.58L68.69 12.58Q69.32 12.58 69.74 12.02L69.74 12.02L69.74 12.02Q70.16 11.46 70.16 10.38ZM75.06 9.15L75.06 9.15L75.00 8.86L75.00 8.86Q74.76 7.59 73.99 7.59L73.99 7.59L73.99 7.59Q73.64 7.59 73.43 7.83L73.43 7.83L73.43 7.83Q73.22 8.07 73.22 8.41L73.22 8.41L73.22 8.41Q73.22 8.67 73.38 8.90L73.38 8.90L73.38 8.90Q73.55 9.13 73.81 9.30L73.81 9.30L73.81 9.30Q74.08 9.48 74.40 9.66L74.40 9.66L74.40 9.66Q74.72 9.83 75.04 10.03L75.04 10.03L75.04 10.03Q75.36 10.23 75.62 10.45L75.62 10.45L75.62 10.45Q75.89 10.67 76.05 10.99L76.05 10.99L76.05 10.99Q76.22 11.30 76.22 11.67L76.22 11.67L76.22 11.67Q76.22 12.41 75.58 12.91L75.58 12.91L75.58 12.91Q74.94 13.41 74.12 13.41L74.12 13.41L74.12 13.41Q73.23 13.41 72.68 13.05L72.68 13.05L72.68 13.05Q72.13 12.69 72.13 12.21L72.13 12.21L72.13 12.21Q72.13 11.85 72.38 11.60L72.38 11.60L72.38 11.60Q72.63 11.35 73.04 11.31L73.04 11.31L73.04 11.31Q73.25 12.02 73.59 12.38L73.59 12.38L73.59 12.38Q73.92 12.74 74.32 12.74L74.32 12.74L74.32 12.74Q74.72 12.74 74.97 12.56L74.97 12.56L74.97 12.56Q75.22 12.39 75.22 12.04L75.22 12.04L75.22 12.04Q75.22 11.83 75.06 11.63L75.06 11.63L75.06 11.63Q74.90 11.43 74.64 11.27L74.64 11.27L74.64 11.27Q74.38 11.10 74.07 10.94L74.07 10.94L74.07 10.94Q73.76 10.77 73.45 10.57L73.45 10.57L73.45 10.57Q73.13 10.37 72.87 10.15L72.87 10.15L72.87 10.15Q72.62 9.93 72.45 9.60L72.45 9.60L72.45 9.60Q72.29 9.28 72.29 8.91L72.29 8.91L72.29 8.91Q72.29 8.67 72.37 8.41L72.37 8.41L72.37 8.41Q72.45 8.15 72.61 7.90L72.61 7.90L72.61 7.90Q72.78 7.64 73.02 7.45L73.02 7.45L73.02 7.45Q73.25 7.25 73.60 7.13L73.60 7.13L73.60 7.13Q73.94 7.01 74.33 7.01L74.33 7.01L74.33 7.01Q75.04 7.01 75.53 7.31L75.53 7.31L75.53 7.31Q76.01 7.61 76.01 8.16L76.01 8.16L76.01 8.16Q76.01 8.59 75.76 8.85L75.76 8.85L75.76 8.85Q75.50 9.12 75.06 9.15ZM76.87 13.17L76.95 12.63L77.99 12.38L77.99 8.18L76.95 7.80L77.04 7.28L78.96 7.12L79.13 7.29L79.13 12.38L80.23 12.62L80.15 13.17L76.87 13.17ZM78.50 4.24L78.50 4.24L78.50 4.24Q78.84 4.24 79.09 4.47L79.09 4.47L79.09 4.47Q79.34 4.70 79.34 5.02L79.34 5.02L79.34 5.02Q79.34 5.36 79.08 5.61L79.08 5.61L79.08 5.61Q78.83 5.86 78.50 5.86L78.50 5.86L78.50 5.86Q78.16 5.86 77.93 5.61L77.93 5.61L77.93 5.61Q77.69 5.36 77.69 5.01L77.69 5.01L77.69 5.01Q77.69 4.68 77.93 4.46L77.93 4.46L77.93 4.46Q78.17 4.24 78.50 4.24ZM82.32 5.74L82.32 5.74L82.68 5.74L82.68 7.23L84.61 7.23L84.55 7.83L82.67 7.83L82.65 10.94L82.65 10.99L82.65 10.99Q82.65 11.74 82.88 12.04L82.88 12.04L82.88 12.04Q83.12 12.33 83.65 12.33L83.65 12.33L83.65 12.33Q83.88 12.33 84.12 12.24L84.12 12.24L84.12 12.24Q84.37 12.14 84.51 12.05L84.51 12.05L84.64 11.96L84.78 12.33L84.78 12.33Q84.46 12.79 83.98 13.06L83.98 13.06L83.98 13.06Q83.50 13.33 82.93 13.33L82.93 13.33L82.93 13.33Q82.60 13.33 82.35 13.24L82.35 13.24L82.35 13.24Q82.09 13.15 81.89 12.94L81.89 12.94L81.89 12.94Q81.69 12.73 81.58 12.34L81.58 12.34L81.58 12.34Q81.48 11.96 81.48 11.40L81.48 11.40L81.48 11.19L81.50 7.82L80.62 7.82L80.62 7.45L80.62 7.45Q81.48 6.77 82.32 5.74ZM89.72 10.09L89.72 10.09L86.41 10.12L86.41 10.12Q86.43 10.55 86.56 10.95L86.56 10.95L86.56 10.95Q86.69 11.35 86.91 11.70L86.91 11.70L86.91 11.70Q87.13 12.05 87.50 12.26L87.50 12.26L87.50 12.26Q87.87 12.48 88.32 12.48L88.32 12.48L88.36 12.48L88.36 12.48Q88.66 12.48 88.82 12.46L88.82 12.46L88.82 12.46Q88.98 12.45 89.26 12.36L89.26 12.36L89.26 12.36Q89.54 12.27 89.87 12.10L89.87 12.10L90.02 12.46L90.02 12.46Q89.61 12.89 89.02 13.14L89.02 13.14L89.02 13.14Q88.44 13.38 87.77 13.38L87.77 13.38L87.77 13.38Q87.28 13.38 86.83 13.17L86.83 13.17L86.83 13.17Q86.37 12.97 86.00 12.59L86.00 12.59L86.00 12.59Q85.63 12.22 85.42 11.61L85.42 11.61L85.42 11.61Q85.20 11.00 85.20 10.25L85.20 10.25L85.20 10.25Q85.20 9.50 85.45 8.88L85.45 8.88L85.45 8.88Q85.70 8.26 86.11 7.87L86.11 7.87L86.11 7.87Q86.52 7.47 87.01 7.25L87.01 7.25L87.01 7.25Q87.50 7.03 88.01 7.03L88.01 7.03L88.01 7.03Q88.79 7.03 89.31 7.59L89.31 7.59L89.31 7.59Q89.84 8.16 89.84 9.19L89.84 9.19L89.84 9.19Q89.84 9.59 89.72 10.09ZM86.43 9.59L86.43 9.59L88.57 9.45L88.57 9.45Q88.62 9.30 88.62 8.98L88.62 8.98L88.62 8.98Q88.62 7.70 87.67 7.70L87.67 7.70L87.67 7.70Q87.21 7.70 86.84 8.18L86.84 8.18L86.84 8.18Q86.47 8.66 86.43 9.59Z"></path></g><!----><g data-v-423bf9ae="" id="e825df7b-1531-4344-bb0a-039318512ad9" transform="matrix(1,0,0,1,185,-5)" stroke="none" fill="black"><path d="M50 5C25.1 5 5 25.1 5 50c0 24.8 20.1 45 45 45s45-20.2 45-45C95 25.1 74.9 5 50 5zm0 72c-14.9 0-27-12.1-27-27s12.1-27 27-27 27 12.1 27 27-12.1 27-27 27zm-9.7-46.3C34 33.9 29.5 40 28.6 47.3h8c.2-6.6 1.6-12.3 3.7-16.6zm9.7 40c3.1 0 7.3-6.8 8-18H42c.7 11.2 4.9 18 8 18zm-21.4-18c1 7.5 5.7 13.8 12.4 16.9-2.4-4.2-4-10-4.4-16.9h-8zm31.1-22c2.1 4.3 3.5 10 3.8 16.6h7.9C70.5 40 66 33.9 59.7 30.7zM50 28.4c-3.2 0-7.5 7.1-8 18.9h16c-.5-11.8-4.8-18.9-8-18.9zm9 41.1c6.6-3.1 11.4-9.3 12.4-16.9h-8c-.4 6.9-1.9 12.8-4.4 16.9z"></path></g><!----></svg>